<?xml version="1.0" standalone="no"?>
<!DOCTYPE svg PUBLIC "-//W3C//DTD SVG 20010904//EN"
 "http://www.w3.org/TR/2001/REC-SVG-20010904/DTD/svg10.dtd">
<svg version="1.0" xmlns="http://www.w3.org/2000/svg"
 width="1024.000000pt" height="683.000000pt" viewBox="0 0 1024.000000 683.000000"
 preserveAspectRatio="xMidYMid meet">
<metadata>
Created by potrace 1.16, written by Peter Selinger 2001-2019
</metadata>
<g transform="translate(0.000000,683.000000) scale(0.100000,-0.100000)"
fill="#000000" stroke="none">
<path d="M5612 6348 c-9 -9 -12 -161 -12 -624 0 -544 2 -614 16 -628 14 -14
83 -16 613 -16 451 0 600 3 609 12 17 17 17 1239 0 1256 -17 17 -1209 17
-1226 0z m1206 -65 l3 -43 -595 0 -596 0 0 38 c0 21 3 42 7 45 3 4 270 6 592
5 l586 -3 3 -42z m0 -620 l-3 -548 -590 0 -590 0 -3 548 -2 547 595 0 595 0
-2 -547z"/>
<path d="M5720 6077 c0 -12 86 -15 492 -19 271 -3 499 -3 506 -1 7 3 11 11 9
17 -3 8 -144 12 -505 14 -418 2 -502 0 -502 -11z"/>
<path d="M5727 6003 c-4 -3 -7 -12 -7 -20 0 -11 90 -13 499 -13 491 0 544 3
500 31 -16 10 -982 12 -992 2z"/>
<path d="M5720 5905 c0 -13 59 -15 503 -13 328 2 501 6 500 13 -2 6 -180 11
-503 13 -442 2 -500 0 -500 -13z"/>
<path d="M5727 5833 c-4 -3 -7 -12 -7 -20 0 -11 87 -13 503 -11 438 3 502 5
502 18 0 13 -63 15 -496 18 -272 1 -499 -1 -502 -5z"/>
<path d="M5720 5735 c0 -13 45 -15 378 -13 243 2 377 7 377 13 0 6 -134 11
-377 13 -333 2 -378 0 -378 -13z"/>
<path d="M6552 5628 c-6 -6 -12 -31 -12 -55 0 -40 -2 -43 -27 -43 -40 0 -51
-11 -55 -50 -3 -31 -6 -35 -33 -35 -30 0 -30 0 -33 63 l-3 63 -52 -3 -52 -3
-3 -107 -3 -107 -37 -3 -37 -3 -3 -72 -3 -73 271 0 271 0 -3 128 -3 127 -42 3
-42 3 -3 87 -3 87 -40 3 c-23 2 -46 -3 -53 -10z m78 -208 l0 -190 -30 0 -30 0
0 190 0 190 30 0 30 0 0 -190z m-260 -30 l0 -160 -30 0 -30 0 0 160 0 160 30
0 30 0 0 -160z m170 -25 l0 -135 -30 0 -30 0 0 135 0 135 30 0 30 0 0 -135z"/>
<path d="M6994 6256 c-3 -8 -4 -27 -2 -43 l3 -28 160 0 160 0 0 40 0 40 -158
3 c-130 2 -158 0 -163 -12z"/>
<path d="M4162 5936 c-7 -17 -22 -27 -46 -32 -73 -13 -112 -79 -83 -140 14
-28 25 -36 74 -49 32 -9 64 -18 71 -20 21 -7 13 -50 -13 -75 -47 -44 -22 -69
28 -30 27 22 43 74 33 108 -7 22 -37 38 -92 48 -35 6 -36 8 -15 16 22 8 22 10
9 26 -9 9 -13 22 -11 29 7 19 -18 26 -35 10 -13 -14 -14 -21 -3 -43 11 -24 10
-26 -3 -14 -37 30 -12 77 53 99 46 15 71 39 71 68 0 30 -24 30 -38 -1z"/>
<path d="M3802 5388 c3 -136 4 -145 31 -191 15 -26 47 -60 69 -75 41 -27 45
-27 222 -30 203 -4 237 2 287 51 24 23 48 36 79 41 93 15 150 80 150 173 0 66
-33 120 -89 150 -44 23 -47 23 -399 23 l-354 0 4 -142z m656 -5 c-4 -135 -22
-182 -85 -230 -36 -28 -38 -28 -202 -31 -198 -4 -221 -1 -268 41 -59 51 -73
95 -73 225 l0 112 316 0 316 0 -4 -117z"/>
<path d="M4060 5432 c-36 -11 -60 -45 -60 -85 0 -34 8 -47 62 -103 33 -35 66
-64 73 -64 7 0 40 29 73 64 52 54 62 70 62 100 0 22 -8 45 -23 62 -21 24 -31
27 -98 29 -41 1 -81 0 -89 -3z"/>
<path d="M5012 5268 c-15 -15 -16 -60 0 -76 14 -14 285 -17 306 -3 8 5 12 23
10 47 l-3 39 -150 3 c-109 2 -154 -1 -163 -10z"/>
<path d="M4920 5010 c-128 -34 -214 -83 -316 -185 -78 -77 -98 -104 -137 -185
-93 -192 -101 -396 -24 -587 34 -83 101 -178 137 -193 17 -7 30 -13 30 -14 0
-31 29 -136 51 -184 40 -88 141 -187 231 -227 66 -29 67 -31 68 -67 0 -36 -1
-38 -33 -38 -27 0 -80 33 -268 162 -478 330 -616 427 -628 442 -8 9 -11 26 -7
39 3 13 85 138 183 278 97 140 187 279 199 309 30 75 58 211 50 244 -8 32 -46
49 -80 36 -18 -6 -28 -21 -36 -50 l-11 -41 -133 91 c-141 96 -183 110 -208 71
-9 -15 -19 -18 -40 -14 -20 4 -35 0 -48 -12 -22 -20 -27 -64 -9 -82 8 -8 6
-18 -5 -36 -20 -29 -9 -70 24 -87 19 -10 19 -12 4 -36 -25 -37 -7 -65 75 -120
l71 -47 -67 -96 c-232 -334 -248 -373 -208 -509 23 -78 89 -141 299 -286 102
-71 186 -131 186 -135 0 -3 -9 -17 -20 -31 -27 -34 -25 -45 13 -69 l32 -21
-282 2 c-255 3 -284 5 -300 21 -16 16 -18 49 -23 375 -6 382 -4 365 -61 500
-27 62 -46 82 -80 82 -53 0 -71 -44 -44 -112 7 -17 -5 -18 -157 -18 -184 0
-208 -7 -208 -61 0 -22 -5 -29 -19 -29 -46 0 -57 -86 -13 -105 12 -5 22 -19
22 -30 0 -37 28 -65 66 -65 31 0 34 -3 34 -28 0 -46 15 -52 122 -52 l98 0 -2
-237 c-2 -221 -1 -242 19 -290 31 -77 76 -128 141 -160 l57 -28 267 -3 267 -3
3 -42 3 -42 128 -5 128 -5 -234 -232 c-176 -176 -239 -233 -257 -233 -19 0
-83 59 -265 239 -239 239 -241 240 -337 286 -118 56 -161 65 -188 40 -39 -35
-22 -84 35 -110 22 -9 17 -16 -91 -130 -97 -102 -114 -124 -114 -152 0 -19 6
-36 16 -41 13 -7 14 -12 4 -29 -28 -45 21 -103 72 -84 15 5 26 3 40 -11 24
-24 49 -23 82 3 25 20 28 20 45 5 32 -29 60 -19 128 47 l64 62 158 -157 c133
-133 168 -163 225 -189 61 -29 74 -31 140 -27 108 7 145 32 346 233 l174 175
33 -32 33 -32 50 49 50 49 0 -197 0 -197 26 0 c26 0 26 -1 20 -57 -3 -32 -11
-130 -16 -218 -6 -88 -17 -250 -25 -360 -8 -110 -26 -384 -42 -609 -27 -398
-28 -408 -49 -417 -35 -13 -38 -43 -12 -116 20 -57 21 -67 8 -71 -8 -3 -27
-19 -42 -35 -28 -29 -28 -31 -28 -161 0 -183 -9 -176 221 -176 227 0 219 -6
219 171 0 105 -3 129 -19 156 -11 17 -29 34 -40 38 -26 8 -26 20 1 90 20 53
21 60 6 85 -14 24 -11 88 37 766 29 406 53 740 54 742 1 1 46 2 101 2 55 0
100 -1 101 -2 0 -2 24 -336 53 -743 47 -664 51 -742 37 -763 -13 -21 -12 -31
9 -95 18 -57 20 -72 9 -76 -8 -2 -26 -17 -41 -32 -28 -27 -28 -28 -28 -161 0
-186 -10 -178 222 -178 l177 0 20 26 c19 24 21 40 21 148 0 102 -3 126 -19
153 -11 17 -29 34 -40 38 -26 8 -26 26 -2 91 23 59 19 87 -13 102 -22 10 -23
19 -45 333 -12 178 -28 416 -36 529 -8 113 -21 304 -30 425 -8 121 -18 254
-21 296 -6 72 -5 76 15 82 20 5 21 10 21 198 l0 193 50 -49 50 -49 33 32 33
32 174 -175 c201 -201 238 -226 346 -233 65 -4 79 -2 139 26 54 26 93 59 225
188 l160 157 64 -61 c67 -65 95 -75 127 -46 17 15 20 15 45 -5 33 -26 58 -27
82 -3 14 14 25 16 40 11 52 -19 101 38 73 83 -10 16 -9 22 3 31 15 12 19 28
17 59 0 10 -52 70 -115 135 -109 112 -114 118 -92 128 57 25 75 75 39 110 -25
25 -75 15 -190 -39 -98 -47 -99 -48 -338 -287 -182 -180 -246 -239 -265 -239
-18 0 -81 57 -257 233 l-234 232 128 5 128 5 3 42 3 42 267 3 267 3 57 28 c65
32 111 84 139 157 17 44 19 79 19 290 l0 240 98 0 c107 0 122 6 122 52 0 25 3
28 34 28 38 0 66 28 66 65 0 11 10 25 23 30 43 19 32 105 -14 105 -14 0 -19 7
-19 29 0 54 -24 61 -208 61 -152 0 -164 1 -157 18 27 68 9 112 -44 112 -38 0
-55 -22 -99 -126 l-37 -89 -5 -362 c-5 -330 -7 -364 -23 -380 -16 -16 -45 -18
-300 -21 l-282 -2 33 21 c37 24 39 35 12 69 -11 14 -20 28 -20 31 0 4 83 64
185 135 102 70 204 146 225 168 79 80 107 184 76 290 -16 54 -62 129 -222 357
l-54 76 70 47 c83 55 101 83 76 120 -15 24 -15 26 4 36 32 17 43 56 25 90 -9
18 -11 31 -5 35 17 11 11 61 -10 80 -13 12 -28 16 -48 12 -21 -4 -31 -1 -40
14 -25 39 -67 25 -208 -71 l-133 -91 -11 41 c-13 47 -44 66 -85 50 -38 -14
-42 -52 -18 -160 3 -16 -13 1 -45 46 -100 141 -247 243 -408 284 -102 26 -251
26 -354 0z m1045 -761 c92 -133 172 -254 178 -270 10 -26 8 -32 -13 -53 -54
-52 -854 -596 -876 -596 -21 0 -24 5 -24 40 0 23 5 40 11 40 6 0 41 14 76 32
128 63 232 202 256 344 7 38 16 64 23 64 18 0 74 49 74 65 0 7 7 16 15 19 21
8 80 135 101 216 18 69 24 238 11 303 -4 20 -6 37 -3 37 2 0 79 -108 171 -241z
m-1334 -776 l200 -138 -240 -3 -241 -2 -40 26 c-22 15 -40 29 -40 31 0 8 151
223 157 223 2 0 95 -62 204 -137z m1193 28 c42 -60 76 -111 76 -114 0 -2 -18
-16 -40 -31 l-40 -26 -240 2 -240 3 198 137 c108 76 200 137 204 138 4 0 41
-49 82 -109z m-1154 -331 l0 -140 -220 0 -220 0 0 133 c0 74 3 137 7 140 3 4
102 7 220 7 l213 0 0 -140z m324 106 c53 -70 149 -70 202 -1 l26 35 124 0 124
0 0 -475 0 -475 -385 0 -385 0 0 475 0 475 134 0 134 0 26 -34z m944 -108 l3
-138 -226 0 -225 0 0 133 c0 74 3 137 7 141 4 3 104 5 222 4 l216 -3 3 -137z
m-1268 -286 l0 -118 -50 -49 -50 -49 -95 94 c-52 52 -95 99 -95 105 0 5 28 38
62 72 l62 63 83 0 83 0 0 -118z m1057 56 c35 -34 63 -67 63 -73 0 -6 -43 -53
-95 -105 l-95 -94 -50 49 -50 49 0 118 0 118 82 0 82 0 63 -62z m-403 -656
c25 -27 60 -57 79 -66 l33 -18 48 -697 c26 -383 50 -726 53 -763 l6 -68 -106
0 -105 0 -6 58 c-3 31 -26 356 -51 722 -25 366 -47 683 -50 705 l-5 40 -131 0
c-122 0 -130 -1 -134 -20 -2 -11 -25 -326 -50 -700 -25 -374 -49 -708 -52
-742 l-6 -63 -103 0 c-103 0 -104 0 -104 24 0 14 23 347 50 740 28 394 50 726
50 740 0 18 11 31 45 50 24 15 59 44 77 66 l33 40 192 0 192 0 45 -48z m-455
-1646 c9 -10 5 -30 -15 -85 l-26 -71 -97 0 -96 0 -28 71 c-21 55 -25 75 -16
85 16 20 262 20 278 0z m720 1 c8 -11 3 -32 -20 -90 l-31 -77 -92 0 -91 0 -29
75 c-38 104 -37 105 124 105 95 0 130 -3 139 -13z m-716 -355 c15 -16 15 -20
1 -40 -14 -21 -23 -22 -138 -22 -117 0 -123 1 -146 25 -19 20 -21 27 -10 40
10 12 38 15 145 15 114 0 134 -2 148 -18z m723 4 c19 -14 19 -15 -5 -40 -24
-25 -28 -26 -144 -26 -98 0 -124 3 -139 17 -23 20 -23 39 0 52 28 17 264 14
288 -3z m-901 -94 c141 -6 179 2 204 41 l21 32 0 -47 c0 -76 -6 -78 -194 -78
-113 0 -166 4 -174 12 -7 7 -12 34 -12 60 l0 48 29 -32 c29 -32 31 -33 126
-36z m650 3 c25 -4 89 -5 142 -3 93 4 96 5 124 36 l29 32 0 -44 c0 -73 -7 -76
-194 -76 -113 0 -166 4 -174 12 -7 7 -12 35 -12 62 l0 51 19 -32 c16 -26 29
-33 66 -38z"/>
<path d="M1672 4984 l-22 -15 0 -613 c0 -581 1 -614 18 -629 17 -15 73 -17
596 -17 379 0 584 4 597 10 18 10 19 28 19 630 0 549 -2 620 -16 634 -14 14
-81 16 -592 16 -507 0 -580 -2 -600 -16z m1176 -66 l3 -48 -585 0 -586 0 0 38
c0 21 5 43 12 50 9 9 147 12 583 10 l570 -3 3 -47z m0 -620 l-3 -553 -580 0
-580 0 -3 553 -2 552 585 0 585 0 -2 -552z"/>
<path d="M1761 4721 c-43 -28 9 -31 505 -31 476 0 505 1 502 18 -3 16 -36 17
-498 19 -272 2 -501 -1 -509 -6z"/>
<path d="M2441 4601 c-8 -5 -15 -19 -16 -30 -1 -12 -22 -50 -48 -85 -39 -53
-51 -63 -71 -59 -28 6 -113 90 -118 118 -5 31 -52 27 -56 -4 -6 -37 -100 -171
-128 -181 -30 -12 -91 16 -112 49 -17 30 -36 26 -66 -13 -16 -22 -36 -36 -54
-38 -32 -4 -42 -37 -17 -58 21 -18 47 -3 55 31 8 34 70 42 128 15 23 -11 42
-25 42 -32 0 -26 59 -26 61 0 1 6 2 18 3 26 0 9 23 48 50 88 36 53 55 72 72
72 26 0 91 -68 106 -112 8 -23 15 -29 36 -26 16 2 28 11 32 24 8 33 103 154
120 154 9 0 20 4 26 9 5 5 52 -2 114 -16 77 -19 111 -32 127 -50 19 -19 26
-22 43 -13 43 23 14 74 -36 64 -35 -7 -230 41 -251 61 -17 17 -23 18 -42 6z"/>
<path d="M1757 4194 c-4 -4 -4 -11 -1 -15 3 -5 225 -9 495 -9 428 0 489 2 489
15 0 13 -61 15 -488 15 -269 0 -492 -3 -495 -6z"/>
<path d="M1755 4109 c-4 -6 -3 -15 2 -20 5 -5 207 -8 494 -7 422 3 484 5 484
18 0 13 -62 15 -487 18 -345 1 -489 -1 -493 -9z"/>
<path d="M1757 4024 c-4 -4 -4 -11 -1 -15 3 -5 225 -9 495 -9 428 0 489 2 489
15 0 13 -61 15 -488 15 -269 0 -492 -3 -495 -6z"/>
<path d="M1755 3939 c-4 -6 -3 -15 2 -20 5 -5 207 -8 494 -7 422 3 484 5 484
18 0 13 -62 15 -487 18 -345 1 -489 -1 -493 -9z"/>
<path d="M1755 3850 c-3 -6 0 -12 7 -15 26 -10 503 0 501 10 -4 14 -499 19
-508 5z"/>
<path d="M7364 4948 c-47 -22 -47 -28 -45 -623 3 -607 1 -594 57 -615 14 -6
139 -10 277 -10 l252 0 183 183 182 182 0 426 c0 420 0 426 -21 445 -20 18
-44 19 -443 21 -278 1 -428 -2 -442 -9z m850 -28 l26 -10 0 -400 0 -400 -97
-1 c-54 0 -129 -3 -167 -8 -104 -11 -106 -16 -106 -213 l0 -159 -246 3 c-230
3 -247 4 -260 23 -12 16 -14 92 -12 470 l3 450 235 5 c207 4 235 7 238 21 2 9
-9 26 -24 38 l-27 21 26 28 c31 32 34 47 11 56 -9 3 -117 6 -240 6 -217 0
-224 1 -224 20 0 11 9 29 20 40 19 19 33 20 419 20 236 0 410 -4 425 -10z
m-447 -127 l-27 -27 32 -33 32 -33 -229 2 -230 3 -3 58 -3 57 228 0 228 0 -28
-27z m308 -883 c-93 -93 -174 -170 -179 -170 -5 0 -6 62 -2 152 5 119 10 156
23 170 14 16 35 18 172 18 l156 0 -170 -170z"/>
<path d="M7495 4450 c-3 -6 0 -12 7 -15 7 -3 157 -4 332 -3 245 2 320 6 324
16 5 16 -653 18 -663 2z"/>
<path d="M7490 4181 c0 -24 660 -27 668 -3 3 9 -68 12 -332 12 -190 0 -336 -4
-336 -9z"/>
<path d="M7372 3108 c-9 -9 -12 -169 -12 -660 0 -630 1 -648 19 -658 13 -7
272 -10 770 -10 668 0 751 2 765 16 14 14 16 87 16 658 0 486 -3 645 -12 654
-17 17 -1529 17 -1546 0z m1273 -44 c-19 -20 -16 -43 8 -58 37 -23 77 35 41
61 -16 12 -14 13 21 13 35 0 37 -1 21 -13 -36 -26 4 -84 42 -61 23 15 26 38 7
58 -15 15 -13 16 21 16 34 0 36 -1 20 -13 -11 -8 -17 -23 -14 -38 2 -19 9 -24
33 -24 24 0 31 5 33 24 3 15 -3 30 -14 38 -16 12 -16 13 9 13 25 0 27 -3 27
-45 l0 -45 -755 0 -755 0 0 45 0 45 636 0 c586 0 634 -1 619 -16z m-22 -101
l277 -6 -2 -571 -3 -571 -750 0 -750 0 -3 578 -2 577 477 0 c263 0 603 -3 756
-7z"/>
<path d="M8032 2802 c-184 -66 -272 -276 -190 -454 121 -263 507 -250 609 21
28 74 24 194 -9 262 -72 148 -258 225 -410 171z m139 -253 c67 -33 120 -62
118 -63 -2 -2 -59 -31 -126 -65 l-123 -61 0 125 c0 69 2 125 5 125 3 0 60 -27
126 -61z"/>
<path d="M7925 2010 c-4 -6 -100 -10 -256 -10 -218 0 -250 -2 -256 -16 -3 -8
1 -22 9 -30 13 -13 114 -15 729 -15 644 1 715 2 726 17 32 43 26 44 -447 44
-289 0 -451 4 -455 10 -3 6 -15 10 -25 10 -10 0 -22 -4 -25 -10z"/>
<path d="M1815 3011 c-12 -5 -26 -15 -32 -22 -8 -10 -12 -187 -15 -597 l-3
-584 28 -24 28 -24 262 0 262 0 182 183 181 182 4 422 c3 411 2 423 -17 442
-19 19 -38 20 -440 26 -243 3 -429 2 -440 -4z m857 -37 c4 -3 8 -184 8 -403
l0 -398 -46 -7 c-26 -3 -95 -6 -155 -6 -59 0 -115 -3 -124 -6 -36 -14 -45 -57
-45 -214 l0 -150 -238 0 c-190 0 -242 3 -258 14 -18 14 -19 30 -16 588 3 521
5 574 20 587 14 11 89 12 431 7 228 -4 418 -9 423 -12z m-157 -1004 l-170
-170 -3 152 c-4 199 -14 188 191 188 l152 0 -170 -170z"/>
<path d="M1896 2868 c-13 -19 -16 -61 -16 -253 0 -192 3 -234 16 -253 15 -22
16 -22 338 -22 300 0 324 1 339 18 15 16 17 49 17 259 0 220 -2 241 -18 256
-17 15 -55 17 -340 17 -320 0 -321 0 -336 -22z m662 -10 c9 -9 12 -76 12 -239
0 -194 -2 -230 -16 -243 -13 -14 -56 -16 -316 -16 -266 0 -304 2 -320 17 -16
15 -18 36 -18 239 0 189 2 225 16 238 13 14 57 16 323 16 225 0 310 -3 319
-12z"/>
<path d="M2026 2789 c-44 -52 -33 -125 24 -154 46 -24 78 -19 116 19 45 45 47
95 5 137 -24 23 -38 29 -74 29 -38 0 -49 -5 -71 -31z m116 -3 c26 -19 39 -62
28 -90 -19 -52 -95 -63 -129 -20 -28 35 -26 69 4 99 27 27 70 32 97 11z"/>
<path d="M2266 2621 l-56 -100 -67 39 c-46 28 -70 36 -79 29 -32 -27 -125
-160 -122 -176 3 -17 24 -18 289 -21 241 -2 288 0 298 12 10 12 -4 42 -80 165
-62 102 -97 151 -109 151 -12 0 -36 -33 -74 -99z m95 41 c8 -15 45 -75 82
-134 l67 -108 -271 0 c-307 0 -286 -10 -205 92 l46 58 62 -40 c35 -22 68 -40
73 -40 6 0 35 45 65 100 30 55 57 100 60 100 3 0 12 -12 21 -28z"/>
</g>
</svg>
