<?xml version="1.0" standalone="no"?>
<!DOCTYPE svg PUBLIC "-//W3C//DTD SVG 20010904//EN"
 "http://www.w3.org/TR/2001/REC-SVG-20010904/DTD/svg10.dtd">
<svg version="1.0" xmlns="http://www.w3.org/2000/svg"
 width="584.000000pt" height="427.000000pt" viewBox="0 0 584.000000 427.000000"
 preserveAspectRatio="xMidYMid meet">
<metadata>
Created by potrace 1.16, written by Peter Selinger 2001-2019
</metadata>
<g transform="translate(0.000000,427.000000) scale(0.100000,-0.100000)"
fill="#000000" stroke="none">
<path d="M2202 3313 l-2 -543 793 2 792 3 -787 2 -788 3 -3 538 -2 537 -3
-542z"/>
<path d="M2244 3840 c-5 -5 -8 -27 -6 -48 l4 -39 231 -6 c296 -9 657 -9 1010
0 l278 6 -3 46 -3 45 -750 3 c-481 2 -755 -1 -761 -7z m1157 -26 c9 -11 10
-20 2 -32 -9 -15 -49 -17 -433 -17 -384 0 -424 2 -433 17 -8 12 -7 21 2 32 12
14 62 16 431 16 369 0 419 -2 431 -16z"/>
<path d="M3264 3688 c-18 -4 -35 -16 -39 -26 -10 -23 -14 -212 -5 -236 5 -14
-2 -32 -24 -60 -29 -38 -75 -132 -91 -183 l-6 -23 226 0 227 0 -7 43 c-13 82
-37 147 -64 176 -22 24 -29 43 -35 94 -9 90 -31 159 -60 186 -30 28 -81 40
-122 29z m36 -78 c6 -11 8 -26 4 -33 -5 -7 -1 -7 9 2 18 14 32 9 32 -12 0 -7
8 -11 18 -9 19 3 21 -1 8 -26 -5 -9 -15 -45 -22 -79 -12 -59 -15 -63 -41 -63
-34 0 -44 20 -28 51 11 20 9 25 -14 42 -21 15 -26 27 -26 63 0 28 5 44 13 45
10 0 10 2 0 6 -18 7 -16 21 5 26 30 8 31 7 42 -13z"/>
<path d="M2242 3078 c2 -29 6 -52 11 -50 4 1 169 2 367 2 l360 0 0 50 0 50
-371 0 -370 0 3 -52z"/>
<path d="M3020 3080 l0 -50 370 0 370 0 0 50 0 50 -370 0 -370 0 0 -50z"/>
<path d="M2247 2983 c-4 -3 -7 -10 -7 -15 0 -4 167 -8 370 -8 322 0 370 2 370
15 0 13 -47 15 -363 15 -200 0 -367 -3 -370 -7z"/>
<path d="M3020 2975 c0 -13 48 -15 370 -15 322 0 370 2 370 15 0 13 -48 15
-370 15 -322 0 -370 -2 -370 -15z"/>
<path d="M2247 2923 c-4 -3 -7 -10 -7 -15 0 -4 167 -8 370 -8 322 0 370 2 370
15 0 13 -47 15 -363 15 -200 0 -367 -3 -370 -7z"/>
<path d="M3020 2915 c0 -13 48 -15 370 -15 322 0 370 2 370 15 0 13 -48 15
-370 15 -322 0 -370 -2 -370 -15z"/>
<path d="M1293 2821 c-43 -7 -109 -46 -118 -70 -3 -7 2 -39 10 -70 12 -41 23
-59 41 -68 24 -11 24 -10 24 33 0 64 25 86 93 82 40 -2 53 -7 55 -20 2 -13 -3
-18 -17 -18 -12 0 -21 -4 -21 -10 0 -5 10 -10 23 -10 17 0 26 9 35 33 19 53
15 83 -14 106 -28 22 -41 23 -111 12z"/>
<path d="M4654 2686 c-42 -19 -60 -68 -44 -126 8 -31 8 -56 0 -97 -7 -31 -9
-73 -6 -94 5 -34 2 -45 -29 -85 -20 -26 -45 -65 -57 -87 -19 -38 -68 -162 -68
-172 0 -3 18 -25 41 -50 39 -42 40 -45 30 -82 -13 -47 -14 -63 -1 -43 6 11 28
15 72 16 46 1 85 10 141 33 45 18 97 31 121 31 48 0 132 23 161 43 18 14 18
17 1 123 -20 122 -44 182 -86 217 -15 13 -28 30 -27 38 6 56 -36 241 -64 280
-41 58 -125 83 -185 55z m52 -93 c4 -10 6 -21 6 -25 -1 -5 4 -9 11 -9 6 -1 19
-2 27 -3 8 0 16 -11 18 -24 3 -18 6 -21 17 -12 17 14 32 -7 16 -23 -6 -6 -11
-22 -11 -35 0 -14 -4 -41 -10 -61 -5 -20 -12 -48 -15 -63 -6 -32 -32 -42 -69
-29 -26 11 -36 44 -16 56 16 10 12 55 -5 55 -22 0 -35 33 -35 89 0 41 3 51 18
52 16 1 16 2 0 6 -26 6 -22 31 5 36 12 2 25 5 28 6 4 0 10 -7 15 -16z"/>
<path d="M2381 2604 c-12 -15 -21 -32 -22 -38 0 -6 -4 -1 -9 12 -15 37 -90 53
-90 18 0 -23 31 -55 57 -58 14 -2 28 -9 31 -16 2 -7 -2 -10 -12 -6 -24 9 -66
-4 -66 -21 0 -20 38 -38 76 -37 25 1 33 -4 38 -21 9 -34 8 -34 -31 -33 -28 1
-38 -3 -38 -14 0 -8 -6 -21 -12 -28 -7 -7 -13 -21 -13 -31 0 -16 -29 -51 -42
-51 -12 0 -18 33 -7 46 5 7 9 28 7 46 -4 42 -34 51 -44 14 -6 -27 -18 -33 -29
-16 -8 13 -52 13 -60 -1 -11 -16 25 -49 54 -50 25 -1 25 -1 -6 -15 -18 -8 -33
-18 -33 -22 0 -15 50 -32 75 -26 17 4 26 0 35 -15 9 -19 8 -21 -14 -21 -14 0
-28 -5 -31 -10 -11 -18 16 -40 50 -40 24 0 34 -6 43 -25 11 -23 10 -24 -17
-19 -17 4 -32 1 -36 -6 -10 -16 24 -50 50 -50 11 0 26 -5 33 -12 9 -9 12 -5
13 18 1 16 1 32 1 36 -1 3 12 1 28 -5 l29 -11 -27 -23 -27 -23 72 0 c60 0 71
3 67 15 -4 8 -1 15 5 15 6 0 11 -6 11 -14 0 -10 9 -12 38 -6 47 8 62 17 62 36
0 8 -10 14 -26 14 -19 0 -25 4 -22 18 2 12 14 17 42 19 21 0 43 6 48 11 15 15
0 32 -28 32 -21 0 -23 2 -13 18 8 13 23 18 57 18 53 -1 67 18 25 35 l-28 12
38 7 c45 8 51 14 43 36 -5 12 -15 15 -41 12 -31 -3 -35 -1 -52 34 -20 41 -44
48 -79 23 -19 -13 -22 -12 -32 10 -11 24 -10 25 24 25 41 0 74 15 74 34 0 16
-22 26 -56 26 -34 0 -22 16 17 24 40 8 59 23 59 47 0 28 -64 26 -83 -2 -15
-20 -15 -20 -21 -1 -4 11 -15 27 -26 37 -19 17 -20 17 -31 -11 -9 -24 -8 -35
9 -67 17 -31 19 -43 10 -63 -16 -35 -24 -29 -20 16 2 22 1 40 -2 40 -17 0 -66
-32 -67 -43 0 -6 -5 0 -11 15 -8 23 -6 33 11 54 21 27 26 58 15 88 -9 23 -19
20 -43 -10z"/>
<path d="M3617 2530 c-13 -18 -16 -19 -27 -5 -17 21 -62 20 -58 -1 3 -17 15
-25 53 -40 17 -7 15 -9 -12 -12 -20 -2 -33 -9 -33 -17 0 -17 31 -35 58 -35 11
0 22 -9 25 -20 4 -16 1 -18 -23 -14 -19 4 -29 1 -33 -10 -4 -9 -2 -16 4 -16
16 0 36 -23 36 -42 0 -9 -4 -15 -8 -13 -4 3 -9 -2 -13 -10 -3 -8 -1 -15 4 -15
6 0 9 -3 8 -7 -2 -14 14 -43 24 -43 5 0 6 4 3 10 -3 6 1 7 9 4 9 -3 16 -10 16
-16 0 -5 -4 -6 -10 -3 -5 3 -10 2 -10 -4 0 -17 -63 23 -66 41 -1 9 4 29 12 44
12 22 12 29 2 36 -21 13 -26 9 -21 -12 3 -12 0 -20 -6 -20 -7 0 -10 -4 -7 -8
7 -12 -12 -38 -21 -28 -4 4 -7 32 -6 62 2 40 -1 54 -11 54 -7 0 -16 -10 -20
-22 -4 -18 -8 -20 -18 -10 -16 16 -48 15 -48 -2 0 -18 26 -39 39 -32 5 4 12 2
16 -4 3 -5 -3 -10 -14 -10 -12 0 -21 -6 -21 -14 0 -19 37 -31 53 -18 9 8 15 4
23 -12 9 -19 8 -22 -10 -22 -33 1 -25 -28 8 -34 34 -6 48 -30 17 -30 -26 0
-28 -26 -3 -39 24 -13 55 4 33 18 -24 16 20 18 51 3 15 -7 32 -11 38 -7 5 3 7
0 4 -8 -9 -23 16 -31 32 -11 11 14 17 15 20 7 8 -18 49 -16 64 3 11 13 10 16
-8 21 -32 8 -27 21 10 25 37 4 50 27 19 35 -31 8 -15 23 25 23 24 0 34 5 34
15 0 8 -8 15 -17 16 -10 0 -3 5 15 10 42 13 45 43 2 37 -25 -4 -31 0 -41 24
-10 26 -16 29 -47 26 -22 -2 -37 2 -39 10 -3 8 5 12 24 12 28 0 53 15 53 32 0
4 -13 8 -30 8 -16 0 -30 5 -30 10 0 6 10 10 23 10 25 0 47 17 47 37 0 18 -40
16 -62 -4 -16 -14 -18 -14 -18 -1 0 9 -7 21 -15 28 -23 19 -30 -13 -15 -61 11
-32 11 -42 1 -52 -10 -10 -12 -7 -9 13 3 26 -8 30 -46 14 -17 -6 -18 -4 -12
22 23 90 15 120 -17 74z"/>
<path d="M1750 2264 c-24 -38 -47 -78 -51 -89 -3 -11 -25 -52 -49 -90 -24 -39
-68 -110 -98 -160 -65 -108 -103 -151 -157 -176 -54 -25 -82 -24 -143 7 -61
30 -119 98 -169 199 -40 79 -41 81 -49 72 -11 -11 80 -169 128 -222 83 -91
161 -115 244 -74 56 26 89 65 160 185 31 54 59 94 61 89 1 -6 18 -68 36 -139
19 -72 38 -131 44 -133 11 -4 -6 76 -46 219 -24 85 -26 75 33 169 25 40 35 48
69 52 21 3 40 7 42 9 2 2 0 36 -3 77 l-7 73 -45 -68z"/>
<path d="M4930 1790 c-33 -18 -67 -19 -774 -19 -786 -1 -768 1 -750 -45 6 -15
88 -16 868 -14 l861 3 0 25 c0 24 -3 25 -70 28 -54 2 -73 7 -85 22 -15 18 -16
18 -50 0z"/>
<path d="M1821 1709 c-83 -9 -84 -10 -142 -63 -54 -50 -167 -116 -247 -144
-30 -10 -33 -15 -28 -39 3 -16 8 -64 11 -108 10 -118 5 -112 83 -107 37 2 139
12 226 22 88 11 161 18 163 17 2 -3 19 -199 22 -257 4 -93 11 -161 25 -275 9
-71 16 -135 16 -142 0 -6 9 -14 19 -18 11 -3 21 -16 23 -27 2 -15 25 -33 73
-60 76 -41 131 -49 142 -21 6 16 3 20 -75 76 -39 29 -39 29 -24 60 20 43 52
87 61 87 4 0 12 -17 17 -38 7 -27 15 -38 32 -40 15 -2 22 -10 22 -26 0 -19 12
-27 78 -49 87 -31 124 -34 142 -12 16 19 5 33 -44 55 -75 33 -76 35 -61 115 7
39 19 111 26 160 6 50 16 93 23 97 6 4 7 8 1 8 -6 0 -10 79 -10 215 l0 215
155 -2 155 -3 2 -145 c2 -80 4 -173 6 -207 1 -35 0 -58 -4 -52 -4 7 -8 5 -12
-4 -3 -8 -1 -19 3 -23 5 -5 11 -63 12 -129 l3 -120 35 0 35 0 3 128 c1 70 6
127 11 127 5 0 5 19 0 43 -4 23 -8 118 -9 210 0 161 1 169 20 174 19 5 24 14
21 40 -1 7 13 20 31 29 40 20 48 31 48 66 0 18 -8 33 -25 44 -26 17 -17 17
-439 -2 l-108 -5 -44 41 c-51 47 -69 55 -184 81 -91 20 -155 22 -289 8z"/>
<path d="M4276 1631 c-23 -25 -30 -83 -22 -163 l7 -63 265 -4 264 -3 0 35 c0
19 3 49 6 66 5 23 3 31 -8 31 -24 0 -39 21 -27 37 9 9 46 13 140 13 l129 0 0
30 c0 24 -4 30 -22 31 -13 0 -178 2 -369 5 -334 5 -346 4 -363 -15z"/>
<path d="M4837 1523 c-3 -5 -7 -35 -8 -68 l-4 -60 44 3 c25 1 62 13 83 25 37
20 78 71 78 96 0 13 -186 16 -193 4z"/>
<path d="M1228 1487 c-63 -11 -74 -23 -30 -31 15 -2 3 -3 -25 -2 -46 3 -53 1
-53 -16 0 -55 73 -162 127 -184 18 -8 51 -14 74 -14 l42 0 -7 106 c-9 134 -9
134 -49 123 -18 -5 -43 -9 -57 -8 -21 1 -19 2 10 11 37 10 65 29 40 27 -8 -1
-41 -6 -72 -12z"/>
</g>
</svg>
