<?xml version="1.0" standalone="no"?>
<!DOCTYPE svg PUBLIC "-//W3C//DTD SVG 20010904//EN"
 "http://www.w3.org/TR/2001/REC-SVG-20010904/DTD/svg10.dtd">
<svg version="1.0" xmlns="http://www.w3.org/2000/svg"
 width="500.000000pt" height="500.000000pt" viewBox="0 0 500.000000 500.000000"
 preserveAspectRatio="xMidYMid meet">
<metadata>
Created by potrace 1.16, written by Peter Selinger 2001-2019
</metadata>
<g transform="translate(0.000000,500.000000) scale(0.100000,-0.100000)"
fill="#000000" stroke="none">
<path d="M2309 4665 c-1 -3 -2 -9 -3 -13 0 -5 -18 -23 -39 -42 -31 -27 -40
-31 -48 -19 -5 8 -9 9 -9 4 0 -26 33 -55 71 -61 35 -6 40 -10 35 -28 -12 -45
-16 -71 -9 -54 5 9 23 28 42 42 26 20 38 23 52 15 11 -5 19 -13 19 -17 0 -4
-25 -24 -56 -46 -45 -31 -58 -36 -65 -25 -5 8 -9 9 -9 3 0 -24 42 -64 76 -70
20 -4 33 -11 30 -18 -28 -67 -31 -136 -5 -136 6 0 8 4 5 8 -6 10 93 88 106 85
14 -5 9 24 -6 36 -8 7 -27 14 -43 17 -15 3 -29 9 -31 13 -1 5 -15 6 -30 4
l-27 -4 24 21 c17 14 26 17 31 10 9 -14 20 11 20 43 0 21 -1 21 -13 -2 -6 -13
-29 -33 -49 -45 -34 -19 -39 -20 -53 -5 -14 14 -11 19 44 57 40 29 61 38 64
30 4 -8 6 -7 6 4 1 17 -43 58 -63 58 -6 0 -17 -9 -24 -20 -7 -11 -17 -20 -23
-20 -7 0 -5 10 5 25 18 27 16 28 -28 25 l-29 -2 29 25 c25 22 30 23 35 9 11
-32 20 20 9 54 -9 27 -37 54 -41 39z"/>
<path d="M1202 4390 c-34 -21 -71 -87 -72 -127 0 -44 64 -133 95 -132 6 0 2 4
-8 10 -12 7 -16 17 -12 30 8 24 -11 49 -36 49 -26 0 -26 64 1 108 23 37 35 41
43 12 3 -13 14 -20 31 -20 31 0 47 26 35 57 -10 27 0 29 41 8 17 -9 30 -13 30
-10 0 3 9 1 21 -5 11 -7 18 -14 15 -17 -3 -3 -12 0 -21 7 -10 8 -15 9 -15 1 0
-6 12 -14 26 -17 28 -7 44 -39 44 -87 -1 -27 -2 -29 -11 -14 -11 19 -44 23
-55 6 -3 -6 1 -18 9 -27 13 -13 19 -13 31 -2 19 15 22 -1 6 -31 -10 -18 -12
-18 -35 -3 -32 21 -70 11 -92 -24 -10 -15 -22 -30 -28 -34 -5 -4 9 -8 33 -8
139 0 200 148 103 250 -35 37 -42 40 -92 40 -36 0 -65 -7 -87 -20z"/>
<path d="M4070 4000 c0 -6 10 -8 25 -4 30 8 95 -3 95 -16 0 -50 -319 -201
-477 -226 -39 -6 -42 -4 -57 24 -9 17 -16 45 -16 62 0 16 -4 30 -10 30 -15 0
-12 -46 5 -87 19 -46 11 -53 -68 -53 -45 0 -59 4 -64 17 -7 18 33 57 76 74 13
5 21 12 17 16 -8 8 -85 -45 -99 -68 -6 -9 -7 -24 -4 -33 5 -13 22 -16 90 -16
65 0 88 -4 98 -16 18 -21 104 -64 129 -64 31 0 15 17 -23 24 -18 3 -48 19 -66
34 l-33 27 108 34 c60 18 140 46 178 62 38 16 71 27 74 25 13 -14 -13 -79 -49
-120 -32 -36 -54 -50 -102 -66 -59 -19 -60 -20 -20 -16 92 9 177 91 190 184 5
32 14 42 67 77 52 34 61 44 61 70 0 30 0 30 -62 33 -40 2 -63 -1 -63 -8z"/>
<path d="M1690 3794 c-104 -27 -215 -90 -288 -162 -62 -62 -122 -149 -137
-197 -4 -11 8 7 27 40 43 77 151 191 222 234 60 36 175 81 206 81 27 0 26 -38
-1 -91 -19 -37 -19 -42 -5 -58 20 -22 20 -55 1 -71 -20 -17 -19 -33 5 -80 11
-22 20 -56 20 -77 0 -44 5 -52 43 -76 24 -16 27 -22 21 -52 -4 -26 -1 -38 15
-54 22 -22 51 -28 51 -11 0 18 20 11 60 -22 31 -24 37 -34 29 -45 -6 -7 -19
-13 -29 -13 -10 0 -28 -16 -39 -36 -14 -24 -26 -34 -36 -30 -8 3 -21 9 -29 12
-9 4 -20 -5 -30 -23 -14 -27 -13 -32 14 -75 16 -26 37 -49 47 -51 10 -3 30 -8
46 -11 30 -7 32 -12 17 -51 -6 -17 -16 -25 -24 -22 -13 5 -36 -49 -36 -85 0
-9 -24 -22 -62 -34 -43 -13 -66 -27 -73 -41 -9 -22 -31 -33 -50 -26 -14 4 -11
111 3 125 8 8 7 18 -4 39 -17 33 -22 34 -49 15 -26 -17 -65 -4 -65 23 0 10
-14 45 -31 77 -26 49 -28 62 -18 80 10 19 7 29 -20 69 -25 38 -29 50 -20 66 9
18 13 19 32 6 43 -27 67 -27 90 0 14 15 21 34 19 50 -2 14 4 43 14 65 17 37
17 39 -2 53 -29 22 -47 18 -104 -20 -29 -19 -56 -33 -60 -30 -5 3 -13 -14 -17
-37 -8 -43 -9 -43 -56 -46 -46 -3 -47 -4 -47 -38 0 -30 -2 -33 -18 -25 -19 10
-43 1 -79 -32 l-23 -20 -2 89 -2 89 -3 -75 c-14 -279 190 -552 467 -625 71
-19 100 -19 100 0 0 10 11 15 35 15 24 0 37 6 45 20 15 29 52 25 85 -10 l29
-30 -35 -1 c-24 -1 -27 -3 -11 -6 34 -7 157 33 232 74 87 48 195 159 242 248
37 73 68 164 67 199 0 12 -9 -11 -19 -50 -18 -69 -53 -148 -82 -188 -12 -15
-18 -17 -36 -7 -26 14 -32 71 -8 71 34 0 59 74 36 110 -8 12 -13 11 -33 -8
-35 -33 -54 -28 -78 22 -16 36 -27 45 -53 50 -18 4 -41 15 -51 26 -10 11 -24
20 -31 20 -11 0 -11 5 -2 25 11 23 12 24 29 9 23 -21 46 -12 59 21 6 16 17 25
31 25 47 0 68 73 25 89 -38 15 -50 61 -15 61 40 0 62 19 55 51 -8 39 15 59 69
59 43 0 43 0 61 -51 10 -28 20 -46 22 -41 6 18 -55 136 -102 199 -80 105 -214
192 -351 228 -74 19 -231 19 -305 -1z m305 -9 c94 -24 195 -79 267 -144 57
-52 128 -144 128 -164 0 -4 -17 -7 -38 -7 -47 0 -77 -27 -67 -60 8 -27 -10
-50 -41 -50 -12 0 -26 -5 -29 -11 -11 -17 16 -69 36 -69 13 0 19 -7 19 -21 0
-26 -23 -49 -50 -49 -12 0 -24 -9 -30 -24 -13 -34 -29 -41 -46 -20 -13 18 -15
18 -34 -6 -25 -32 -25 -37 3 -51 12 -7 25 -18 29 -24 4 -7 24 -16 43 -19 29
-6 39 -15 53 -44 9 -20 22 -40 27 -44 20 -15 53 -8 68 15 l15 22 7 -28 c10
-37 -9 -77 -35 -77 -17 0 -20 -7 -20 -38 0 -32 5 -41 25 -50 l26 -12 -31 -39
c-59 -73 -155 -139 -258 -178 -57 -21 -69 -22 -90 -12 -13 7 -28 21 -33 31
-14 26 -76 25 -84 -2 -5 -15 -15 -20 -42 -20 -22 0 -41 -6 -48 -17 -12 -16
-17 -16 -77 1 -80 22 -168 61 -168 76 0 7 13 9 36 4 33 -6 36 -5 26 11 -7 13
-4 27 10 51 19 33 19 33 -1 53 -23 23 -37 26 -46 11 -3 -5 -15 -10 -27 -10
-17 0 -20 -5 -16 -30 6 -38 -23 -70 -46 -51 -17 15 -26 87 -14 120 5 14 6 38
2 54 -5 24 -10 28 -30 24 -20 -3 -23 -1 -19 14 3 10 2 26 -3 36 -5 10 -17 35
-26 56 -17 41 -27 44 -79 22 -20 -8 -38 -15 -41 -15 -2 0 -7 16 -11 36 -5 31
-2 41 22 66 19 20 36 28 53 26 35 -3 48 8 42 37 -4 23 -2 25 36 25 43 0 58 12
64 50 1 14 8 24 13 24 6 -1 27 13 47 32 46 41 84 52 105 32 13 -14 13 -19 -1
-46 -9 -17 -16 -44 -16 -60 0 -17 -8 -39 -17 -51 l-18 -22 -40 21 c-47 24 -60
21 -69 -15 -5 -20 -2 -33 12 -49 33 -36 41 -58 30 -82 -9 -18 -6 -31 15 -66
14 -24 28 -60 32 -80 9 -47 43 -65 85 -43 27 14 29 14 35 -6 4 -11 3 -25 -2
-32 -13 -18 -9 -127 6 -136 21 -13 61 0 61 19 0 17 26 30 126 64 6 3 14 21 17
42 4 23 16 46 31 58 14 12 28 33 32 48 6 29 -6 39 -66 52 -36 8 -82 83 -68
110 15 29 14 29 36 15 26 -16 47 -7 64 28 8 16 21 27 31 27 10 -1 25 9 34 23
16 23 16 26 -1 35 -10 5 -29 23 -43 38 -24 27 -49 30 -63 8 -4 -4 -16 -1 -29
8 -19 14 -21 22 -16 54 6 35 4 39 -30 59 -32 18 -36 25 -34 58 1 23 -6 55 -19
80 -26 50 -28 71 -7 79 20 8 19 53 -1 75 -14 16 -14 21 5 57 11 22 22 54 23
71 l2 31 91 0 c50 0 118 -7 150 -15z m-635 -797 c7 -18 17 -43 23 -55 12 -27
-5 -53 -34 -53 -20 0 -23 -8 -13 -34 9 -24 40 -19 62 11 l19 27 12 -23 c9 -15
10 -31 3 -49 -5 -15 -7 -42 -4 -60 2 -19 0 -32 -6 -32 -17 0 -101 108 -133
172 -39 77 -38 101 4 115 50 16 54 15 67 -19z"/>
<path d="M2720 3636 c0 -9 3 -16 8 -16 4 0 20 -21 36 -46 l30 -47 -28 -53 -28
-54 30 -52 29 -53 62 -5 c55 -4 64 -8 81 -35 27 -41 25 -70 -7 -122 -31 -49
-54 -58 -119 -49 -35 4 -44 3 -44 -9 0 -12 9 -13 44 -9 69 10 90 0 117 -53 13
-27 25 -50 26 -52 1 -1 7 0 14 5 9 5 9 10 -2 18 -12 9 -47 60 -60 86 -4 8 51
93 69 108 9 6 39 12 68 12 l52 0 32 56 31 55 -30 49 -31 50 22 37 c12 21 28
43 36 48 10 9 6 22 -25 68 l-37 57 -61 0 -60 0 -28 -50 -28 -50 -58 0 c-57 0
-59 1 -86 41 -15 23 -28 49 -29 57 -4 21 -26 28 -26 8z m398 -56 c28 -50 28
-63 -3 -116 l-25 -43 30 -51 30 -50 -28 -50 c-27 -50 -27 -50 -79 -50 -56 0
-68 7 -98 63 -19 36 -19 37 -1 69 10 18 28 43 39 56 11 12 15 22 9 22 -13 0
-62 73 -62 91 0 7 11 32 25 56 26 43 26 43 83 43 56 0 57 -1 80 -40z m-180
-100 c28 -50 28 -77 -3 -123 -24 -35 -29 -37 -79 -37 l-54 0 -27 53 -28 52 29
48 c29 47 29 47 84 47 54 0 56 -1 78 -40z"/>
<path d="M3283 2875 c-104 -32 -197 -116 -252 -227 -39 -76 -39 -92 -5 -85 19
3 24 1 20 -9 -3 -8 -9 -21 -12 -29 -4 -9 1 -17 10 -21 9 -3 16 -12 16 -20 0
-8 4 -14 9 -14 5 0 12 -12 17 -27 5 -20 8 -23 11 -11 2 9 12 19 21 21 13 3 11
5 -5 6 -15 1 -23 9 -28 29 -7 34 12 93 24 73 7 -10 9 -10 13 1 3 7 30 27 59
42 l53 29 -22 -35 c-30 -48 -28 -53 11 -25 33 25 107 57 130 57 7 0 24 -18 36
-40 12 -22 36 -51 53 -63 17 -12 40 -42 51 -67 l20 -45 7 30 c9 42 38 83 63
91 24 8 63 -33 72 -77 8 -37 -11 -103 -39 -136 -21 -25 -25 -26 -42 -13 -18
14 -18 14 -5 -2 7 -10 19 -18 27 -18 17 0 34 -31 35 -67 1 -23 3 -21 9 12 5
22 19 70 33 106 50 129 60 287 23 364 -26 57 -53 84 -111 113 -22 11 -62 32
-89 46 -56 30 -140 34 -213 11z"/>
<path d="M4528 2783 c-10 -2 -18 -13 -18 -24 0 -12 -7 -19 -19 -19 -22 0 -36
-40 -18 -52 9 -6 9 -10 -2 -17 -20 -13 1 -63 23 -55 10 4 16 -2 18 -18 3 -26
36 -37 50 -16 7 10 11 10 15 1 8 -21 44 -15 50 7 3 11 14 20 23 20 22 0 36 36
21 54 -7 9 -7 16 0 23 14 14 2 53 -17 53 -8 0 -14 7 -14 15 0 23 -42 37 -56
19 -10 -13 -12 -13 -18 1 -6 15 -8 16 -38 8z m62 -28 c27 6 32 4 27 -8 -7 -18
11 -37 29 -30 17 6 18 -1 2 -27 -10 -15 -10 -22 0 -32 18 -18 15 -28 -9 -28
-12 0 -23 -8 -26 -20 -6 -23 -14 -25 -31 -8 -9 9 -15 9 -24 0 -18 -18 -26 -15
-30 11 -2 14 -11 23 -26 25 -19 3 -21 6 -11 18 6 7 8 25 5 39 -5 19 -2 25 9
25 9 0 20 12 26 27 7 20 12 24 18 14 6 -9 18 -11 41 -6z"/>
<path d="M991 2742 c-11 -26 -14 -27 -79 -26 -47 0 -76 5 -92 17 -14 9 -42 17
-63 17 -31 0 -46 -7 -73 -34 -38 -38 -45 -85 -20 -134 15 -29 61 -60 73 -49 3
4 -1 7 -9 7 -29 0 -68 58 -68 102 0 78 94 127 158 82 l22 -15 -26 -35 c-20
-26 -27 -47 -28 -89 -1 -40 2 -55 12 -55 23 0 72 57 72 84 0 28 -7 32 -30 15
-13 -9 -12 -10 3 -5 32 10 18 -22 -15 -33 -37 -13 -51 -5 -24 15 14 10 16 14
5 14 -22 1 21 30 43 30 14 0 18 6 16 28 -3 25 0 27 38 30 47 3 89 -24 110 -72
7 -17 13 -24 14 -15 0 9 -11 32 -24 52 -17 25 -21 38 -13 46 18 18 31 13 16
-6 -13 -17 -12 -17 4 -4 16 13 17 17 5 25 -8 6 -13 17 -11 24 9 24 -5 12 -16
-16z"/>
<path d="M3130 2257 c0 -9 24 -64 54 -121 l54 -104 -72 -26 c-83 -31 -133 -68
-172 -130 -28 -45 -51 -50 -82 -19 -7 7 -21 12 -30 12 -15 -1 -15 -2 1 -6 9
-2 17 -11 17 -19 0 -8 10 -14 25 -14 28 0 26 6 55 -170 11 -69 23 -137 26
-153 5 -26 5 -27 -23 -16 -15 6 -74 13 -130 16 -86 5 -103 3 -103 -9 0 -8 5
-19 12 -26 8 -8 2 -10 -26 -5 -33 5 -38 4 -34 -13 4 -24 70 -69 133 -91 l50
-18 -54 -5 c-30 -3 -56 -10 -58 -17 -3 -6 10 -26 26 -44 17 -18 31 -36 31 -40
0 -4 14 -16 30 -26 17 -9 30 -21 30 -25 0 -4 -26 -8 -59 -8 -70 0 -219 -25
-266 -44 -26 -11 -42 -12 -69 -4 l-35 11 -36 156 c-94 397 -108 455 -112 445
-3 -9 105 -489 123 -546 3 -9 -28 16 -68 56 -40 40 -100 88 -133 107 l-60 34
43 3 c43 3 53 17 30 40 -21 21 -32 13 -12 -9 l19 -22 -52 5 c-28 3 -58 1 -65
-4 -10 -7 -10 -8 2 -6 8 2 26 -8 39 -21 19 -19 21 -25 10 -32 -17 -10 -23 -11
-43 -3 -23 9 -76 96 -97 162 -13 38 -18 45 -14 22 7 -47 61 -155 88 -177 12
-10 42 -45 66 -77 69 -93 179 -204 264 -267 l77 -58 -37 -4 -38 -4 39 -1 c27
-1 49 -11 73 -32 18 -16 41 -31 51 -32 9 0 -3 -4 -28 -8 l-45 -7 58 -1 c33 -1
84 -9 114 -18 30 -9 69 -14 86 -11 52 9 104 25 83 26 -20 1 -20 1 0 16 10 8
35 15 54 16 31 2 32 3 8 6 -16 2 -28 7 -28 9 0 5 40 54 111 137 l27 31 7 -100
7 -100 161 -18 c123 -14 164 -22 174 -35 20 -26 10 -46 -27 -52 -22 -4 -26 -7
-12 -8 12 0 22 -3 22 -7 0 -14 -52 -190 -58 -196 -6 -6 -658 16 -742 24 -23 3
-16 12 73 105 84 87 104 102 135 106 l37 4 -40 1 c-37 2 -45 -3 -121 -79 l-82
-81 -178 11 c-237 14 -442 34 -424 39 8 3 56 24 105 47 191 91 287 127 353
135 l67 7 -71 2 c-53 1 -131 -13 -313 -54 -262 -59 -265 -60 -256 -45 3 6 -3
10 -14 10 -12 0 -21 -4 -21 -9 0 -4 -11 -6 -24 -4 -13 3 -27 -1 -31 -7 -5 -9
-1 -10 14 -5 11 3 21 2 21 -3 0 -5 -6 -9 -12 -9 -7 0 -30 -4 -51 -8 -29 -6
-37 -4 -35 6 2 7 -5 15 -16 17 -13 3 -16 0 -11 -9 6 -9 3 -11 -9 -6 -10 4 -22
7 -27 7 -6 0 -7 5 -4 10 9 14 -23 24 -38 12 -8 -7 -41 -1 -105 18 -52 16 -95
30 -98 32 -2 2 -1 14 3 26 4 17 11 21 32 16 22 -4 21 -3 -6 10 -30 14 -46 46
-24 46 6 0 79 -24 164 -54 l154 -54 314 63 c173 35 316 61 319 59 2 -3 -2 -9
-10 -14 -13 -8 -12 -10 3 -10 9 0 17 7 17 15 0 10 11 15 38 16 20 1 28 3 17 6
-11 2 -111 27 -223 55 l-202 51 -326 -54 c-317 -52 -327 -55 -336 -79 -5 -14
-7 -43 -4 -65 l6 -40 -190 -44 c-105 -25 -193 -48 -196 -53 -3 -5 5 -6 18 -3
12 3 101 23 196 45 95 22 181 40 191 40 10 0 92 -22 182 -50 90 -27 173 -50
183 -50 25 0 450 95 494 111 18 6 35 9 38 6 3 -3 -11 -10 -30 -17 -49 -16
-279 -119 -290 -130 -5 -5 6 -11 25 -14 34 -6 528 -36 583 -36 28 0 28 0 11
-26 -9 -14 -15 -28 -13 -30 4 -3 687 -34 763 -34 30 0 31 2 54 87 13 49 28 99
33 112 9 24 9 24 26 -10 18 -36 45 -52 154 -94 45 -17 86 -25 127 -25 58 0 64
2 105 40 24 22 56 59 72 81 l28 41 66 -6 c66 -7 360 -41 438 -52 23 -3 42 -1
42 4 0 5 -48 15 -107 21 -60 6 -123 14 -142 18 l-34 6 6 263 7 262 34 104 c57
168 64 321 22 423 -22 52 -92 122 -150 149 -71 33 -189 71 -305 97 -94 21
-100 24 -120 58 -11 20 -21 32 -21 26 0 -23 42 -76 80 -100 22 -14 40 -30 40
-37 0 -20 -82 -87 -139 -115 -38 -18 -81 -29 -136 -34 l-80 -7 90 2 c137 4
237 50 286 131 15 23 19 26 19 11 0 -31 -80 -99 -145 -125 -80 -32 -227 -41
-273 -17 -17 9 -34 21 -38 27 -5 8 -3 9 7 4 8 -5 7 0 -3 12 -31 34 -16 109 18
96 23 -8 184 160 183 190 -1 18 -2 17 -9 -6 -10 -32 -19 -41 -103 -97 -60 -40
-137 -63 -175 -53 -24 6 -78 95 -119 192 -12 31 -23 48 -23 38z m-190 -767
c73 -14 255 -126 360 -222 47 -43 154 -130 238 -194 85 -64 159 -127 164 -140
16 -35 -4 -91 -49 -137 -44 -46 -107 -80 -132 -72 -31 10 -81 66 -176 200 -51
71 -114 154 -140 183 -44 49 -50 52 -94 52 -104 0 -234 41 -270 84 -12 14 -9
16 20 17 l34 1 -37 7 c-42 9 -68 27 -68 47 0 11 18 14 73 15 61 0 68 2 47 11
-106 46 -189 90 -194 103 -7 19 -9 19 109 -10 55 -14 107 -24 115 -24 23 1
-60 35 -105 43 -46 9 -75 23 -75 36 0 13 113 13 180 0z m-564 -265 c110 -112
136 -125 194 -101 19 7 62 19 94 26 54 11 61 11 73 -6 32 -44 8 -130 -51 -182
-47 -41 -80 -41 -148 -1 -107 63 -218 164 -321 294 l-55 69 26 17 c24 15 30
15 57 1 17 -8 76 -61 131 -117z m-190 -217 c90 -23 164 -44 164 -47 0 -4 -138
-34 -306 -67 l-306 -61 -166 58 c-92 32 -165 59 -162 60 19 6 561 97 583 98
16 1 103 -18 193 -41z"/>
<path d="M564 2025 c-10 -26 6 -84 47 -173 21 -47 37 -87 35 -90 -3 -2 -37 -8
-76 -12 -140 -15 -135 -70 11 -124 37 -14 49 -25 63 -57 18 -39 17 -41 -9
-114 -51 -138 -8 -167 98 -67 60 56 63 57 107 52 43 -5 46 -7 59 -48 11 -35
19 -44 42 -49 16 -3 29 -10 29 -15 0 -5 4 -7 9 -3 5 3 12 1 16 -5 3 -5 11 -10
17 -10 6 0 -1 9 -16 21 -15 11 -26 31 -26 44 0 27 -22 48 -42 40 -13 -5 -47
21 -37 29 2 1 25 14 51 28 l47 26 22 -52 c13 -28 23 -72 23 -98 1 -25 5 -44
10 -41 14 9 0 87 -26 145 -24 52 -25 55 -7 76 14 18 29 22 86 24 l68 2 -67 5
c-57 5 -66 8 -58 21 5 8 9 24 9 35 -1 15 -3 14 -9 -7 -9 -30 -42 -88 -50 -88
-3 0 -18 25 -34 56 l-29 56 18 34 c13 24 25 34 44 35 17 1 20 3 9 6 -21 5 -21
5 -6 38 15 33 23 32 38 -6 11 -25 11 -32 0 -39 -10 -6 -6 -10 16 -15 81 -18
166 -54 179 -75 4 -6 1 -18 -7 -27 -11 -14 -11 -15 2 -11 26 8 16 41 -19 65
-18 13 -58 30 -88 40 -48 15 -56 21 -74 62 -24 56 -18 95 23 133 28 26 29 29
17 63 -26 70 -48 68 -134 -16 -48 -46 -53 -48 -112 -50 l-61 -2 -84 86 c-81
85 -113 103 -124 72z m56 -15 c49 -35 147 -153 131 -158 -8 -2 -31 -20 -52
-39 l-38 -34 -29 58 c-52 105 -74 193 -46 193 3 0 19 -9 34 -20z m333 -180
c20 -14 39 -31 42 -38 9 -24 -27 -72 -55 -73 -23 -2 -24 -2 -2 -6 22 -4 22 -5
5 -34 -10 -16 -20 -29 -24 -29 -4 0 -16 15 -27 34 l-21 35 22 4 c19 4 19 4 -4
6 -19 1 -36 16 -67 61 -23 32 -42 62 -42 66 0 3 31 5 69 2 52 -3 77 -9 104
-28z m-220 -111 c17 -19 20 -20 42 -5 43 28 71 21 105 -28 16 -25 30 -49 30
-53 0 -13 -83 -124 -109 -148 -22 -19 -22 -19 -58 0 -78 42 -123 152 -93 229
12 33 57 36 83 5z"/>
<path d="M1950 2001 c0 -2 23 -66 50 -143 46 -129 49 -141 35 -161 -10 -14
-14 -42 -13 -77 l1 -55 6 60 c4 39 14 71 29 93 20 28 29 32 67 32 53 0 67 -16
28 -31 -51 -20 -58 -26 -68 -55 -5 -16 -18 -35 -27 -42 -10 -7 -17 -23 -17
-35 1 -19 2 -19 6 -3 6 21 49 62 75 71 22 8 101 -32 95 -48 -2 -7 -21 -12 -42
-12 -28 0 -41 -6 -52 -22 -15 -22 -14 -23 9 -23 31 0 114 -58 101 -71 -5 -5
-22 -5 -42 1 -34 10 -55 5 -46 -9 15 -25 115 -16 115 10 0 12 -61 56 -100 73
-38 16 -30 23 30 28 27 2 36 8 38 24 2 16 -8 25 -47 43 -27 13 -57 21 -66 17
-13 -5 -16 -2 -11 10 3 8 6 18 6 20 0 2 11 4 24 4 13 0 34 9 47 20 21 17 22
21 9 30 -19 12 -96 13 -119 1 -15 -8 -22 6 -60 111 -23 66 -40 123 -36 126 9
9 92 -16 147 -43 64 -32 121 -79 154 -126 15 -22 40 -43 59 -49 21 -7 35 -19
38 -33 44 -193 142 -578 144 -567 1 8 -28 143 -66 300 -46 189 -65 287 -58
292 5 3 48 14 94 24 46 9 81 19 78 22 -2 2 -47 -5 -100 -17 -53 -13 -105 -19
-117 -16 -13 4 -51 38 -86 76 -46 49 -82 78 -134 103 -39 20 -78 37 -87 37 -9
1 0 5 19 9 26 6 17 7 -37 6 -40 0 -73 -3 -73 -5z"/>
</g>
</svg>
